<?xml version="1.0" encoding="UTF-8" standalone="no"?>
<!DOCTYPE svg PUBLIC "-//W3C//DTD SVG 1.1//EN" "http://www.w3.org/Graphics/SVG/1.1/DTD/svg11.dtd">
<svg width="100%" height="100%" viewBox="0 0 284 284" version="1.1" xmlns="http://www.w3.org/2000/svg" xmlns:xlink="http://www.w3.org/1999/xlink" xml:space="preserve" xmlns:serif="http://www.serif.com/" style="fill-rule:evenodd;clip-rule:evenodd;stroke-linejoin:round;stroke-miterlimit:2;">
    <path d="M187.298,146.38C174.599,156.556 158.795,162.092 142.521,162.065C103.17,162.065 70.788,129.684 70.788,90.333C70.788,50.981 103.17,18.6 142.521,18.6C181.873,18.6 214.254,50.981 214.254,90.333C214.281,106.606 208.744,122.41 198.568,135.11L262.076,198.617L250.806,209.887L187.298,146.38ZM142.521,34.54C173.287,34.54 198.313,59.567 198.313,90.333C198.313,121.098 173.287,146.125 142.521,146.125C111.756,146.125 86.729,121.098 86.729,90.333C86.729,59.567 111.756,34.54 142.521,34.54Z"/>
    <g>
        <g transform="matrix(1.37251,0,0,1.27781,80.9349,121.725)">
            <path d="M78.921,108.505L65.527,80.863C64.861,79.531 65.327,77.869 66.567,77.153C67.808,76.438 69.356,76.938 70.022,78.271L84.69,106.716C84.909,107.107 85.369,108.014 85.552,109.027C85.795,110.377 85.566,111.815 84.634,113.013C83.931,113.917 82.6,114.921 79.906,114.949C77.716,114.961 69.03,115.061 60.36,115.054C51.55,115.048 42.757,114.935 40.814,114.922C37.708,114.888 36.467,113.373 35.895,112.002C35.463,110.967 35.395,109.778 35.607,108.696C35.847,107.476 36.39,106.463 36.356,106.529L50.876,78.321C51.542,76.988 53.09,76.488 54.331,77.203C55.571,77.919 56.037,79.581 55.371,80.913L41.965,108.529C45.142,108.498 52.744,108.413 60.36,108.408C68.047,108.402 75.747,108.48 78.921,108.505Z"/>
        </g>
        <g transform="matrix(1.16521,0,0,0.875801,99.4212,154.459)">
            <path d="M63.983,79.152L63.983,42.721L66.999,39.839" style="fill:none;"/>
        </g>
        <g transform="matrix(1.16521,0,0,0.875801,99.4212,154.459)">
            <path d="M66.986,44.771L66.986,79.152L60.979,79.152L60.979,42.721C60.979,41.434 61.445,40.225 62.231,39.474L65.248,36.593L68.751,43.086L66.986,44.771Z"/>
        </g>
        <g transform="matrix(1.16521,0,0,0.875801,99.4212,154.459)">
            <path d="M43.737,39.839L46.722,42.721L46.722,79.152" style="fill:none;"/>
        </g>
        <g transform="matrix(1.16521,0,0,0.875801,99.4212,154.459)">
            <path d="M43.719,44.759L41.973,43.074L45.501,36.605L48.486,39.486C49.265,40.238 49.726,41.441 49.726,42.721L49.726,79.152L43.719,79.152L43.719,44.759Z"/>
        </g>
        <g transform="matrix(1.27781,0,0,1.27781,57.8757,99.978)">
            <path d="M80.782,58.42C77.828,58.42 75.429,60.818 75.429,63.772C75.429,66.726 77.828,69.125 80.782,69.125C83.736,69.125 86.134,66.726 86.134,63.772C86.134,60.818 83.736,58.42 80.782,58.42ZM80.782,61.159C82.224,61.159 83.395,62.33 83.395,63.772C83.395,65.214 82.224,66.385 80.782,66.385C79.339,66.385 78.168,65.214 78.168,63.772C78.168,62.33 79.339,61.159 80.782,61.159Z"/>
        </g>
        <g transform="matrix(0.572738,0,0,0.572738,106.832,132.539)">
            <path d="M80.782,57.17C77.138,57.17 74.18,60.129 74.18,63.772C74.18,67.416 77.138,70.374 80.782,70.374C84.425,70.374 87.384,67.416 87.384,63.772C87.384,60.129 84.425,57.17 80.782,57.17ZM80.782,62.408C81.534,62.408 82.146,63.019 82.146,63.772C82.146,64.525 81.534,65.136 80.782,65.136C80.029,65.136 79.418,64.525 79.418,63.772C79.418,63.019 80.029,62.408 80.782,62.408Z"/>
        </g>
        <g transform="matrix(0.256713,0,0,0.256713,118.979,150.998)">
            <path d="M80.782,55.894C76.434,55.894 72.904,59.424 72.904,63.772C72.904,68.12 76.434,71.65 80.782,71.65C85.13,71.65 88.66,68.12 88.66,63.772C88.66,59.424 85.13,55.894 80.782,55.894ZM80.782,63.685C80.83,63.685 80.869,63.724 80.869,63.772C80.869,63.82 80.83,63.86 80.782,63.86C80.734,63.86 80.694,63.82 80.694,63.772C80.694,63.724 80.734,63.685 80.782,63.685Z"/>
        </g>
    </g>
    <g transform="matrix(0.80377,0,0,0.80377,-39.8956,18.8346)">
        <g transform="matrix(1.37251,0,0,1.27781,80.9349,121.725)">
            <path d="M74.415,87.381L69.697,88.834L65.817,80.696C65.236,79.536 65.642,78.087 66.723,77.464C67.803,76.841 69.152,77.277 69.732,78.438C69.732,78.438 74.415,87.381 74.415,87.381Z"/>
        </g>
        <g transform="matrix(1.37251,0,0,1.27781,80.9349,121.725)">
            <path d="M60.36,114.893C51.55,114.885 42.757,114.735 40.814,114.718C37.824,114.674 36.622,113.234 36.075,111.912C35.664,110.918 35.6,109.776 35.807,108.739C36.043,107.555 36.571,106.573 36.539,106.635L51.166,78.488C51.746,77.327 53.094,76.891 54.175,77.514C55.256,78.137 55.662,79.586 55.081,80.746L41.628,108.734C44.576,108.698 52.461,108.576 60.36,108.57L60.36,114.893Z"/>
        </g>
        <g transform="matrix(1.16521,0,0,0.875801,99.4212,154.459)">
            <path d="M63.983,79.152L63.983,54.667L66.999,51.786" style="fill:none;"/>
        </g>
        <g transform="matrix(1.16521,0,0,0.875801,99.4212,154.459)">
            <path d="M66.652,56.489L66.652,79.152L61.313,79.152L61.313,54.667C61.313,53.523 61.727,52.449 62.426,51.782L65.443,48.901L68.556,54.671L66.652,56.489Z"/>
        </g>
        <g transform="matrix(1.16521,0,0,0.875801,99.4212,154.459)">
            <path d="M43.737,51.786L46.722,54.667L46.722,79.152" style="fill:none;"/>
        </g>
        <g transform="matrix(1.16521,0,0,0.875801,99.4212,154.459)">
            <path d="M44.053,56.478L42.17,54.66L45.305,48.911L48.29,51.793C48.982,52.461 49.392,53.529 49.392,54.667L49.392,79.152L44.053,79.152L44.053,56.478Z"/>
        </g>
        <g transform="matrix(1.27781,0,0,1.27781,58.7695,107.358)">
            <path d="M80.782,59.059C78.181,59.059 76.069,61.171 76.069,63.772C76.069,66.373 78.181,68.485 80.782,68.485C83.383,68.485 85.495,66.373 85.495,63.772C85.495,61.171 83.383,59.059 80.782,59.059ZM80.782,60.52C82.577,60.52 84.034,61.977 84.034,63.772C84.034,65.567 82.577,67.025 80.782,67.025C78.987,67.025 77.529,65.567 77.529,63.772C77.529,61.977 78.987,60.52 80.782,60.52Z"/>
        </g>
        <g transform="matrix(0.572738,0,0,0.572738,106.502,142.171)">
            <path d="M80.782,58.16C77.684,58.16 75.17,60.675 75.17,63.772C75.17,66.87 77.684,69.384 80.782,69.384C83.879,69.384 86.394,66.87 86.394,63.772C86.394,60.675 83.879,58.16 80.782,58.16ZM80.782,61.419C82.081,61.419 83.135,62.473 83.135,63.772C83.135,65.071 82.081,66.126 80.782,66.126C79.483,66.126 78.428,65.071 78.428,63.772C78.428,62.473 79.483,61.419 80.782,61.419Z"/>
        </g>
        <g transform="matrix(0.256713,0,0,0.256713,131.644,152.678)">
            <path d="M80.782,57.73C77.447,57.73 74.739,60.437 74.739,63.772C74.739,67.107 77.447,69.815 80.782,69.815C84.117,69.815 86.824,67.107 86.824,63.772C86.824,60.437 84.117,57.73 80.782,57.73ZM80.782,61.849C81.843,61.849 82.705,62.711 82.705,63.772C82.705,64.834 81.843,65.695 80.782,65.695C79.72,65.695 78.859,64.834 78.859,63.772C78.859,62.711 79.72,61.849 80.782,61.849Z"/>
        </g>
    </g>
    <g transform="matrix(0.934333,0,0,1.3646,9.47101,189.391)">
        <g transform="matrix(1,0,0,1,0,4.30848)">
            <path d="M121.327,15.205L121.327,32.66C121.327,33.667 120.331,34.552 118.83,35.308C116.008,36.728 111.44,37.612 106.307,37.612C101.174,37.612 96.605,36.728 93.784,35.308C92.283,34.552 91.286,33.667 91.286,32.66L91.286,15.205C91.286,14.497 90.447,13.923 89.413,13.923C88.38,13.923 87.54,14.497 87.54,15.205L87.54,32.66C87.54,34.406 88.965,36.065 91.565,37.374C94.894,39.05 100.251,40.177 106.307,40.177C112.363,40.177 117.719,39.05 121.048,37.374C123.649,36.065 125.073,34.406 125.073,32.66L125.073,15.205C125.073,14.497 124.234,13.923 123.2,13.923C122.166,13.923 121.327,14.497 121.327,15.205Z"/>
        </g>
        <path d="M106.307,11.997C100.251,11.997 94.894,13.124 91.565,14.799C88.965,16.108 87.54,17.768 87.54,19.514C87.54,21.259 88.965,22.919 91.565,24.228C94.894,25.903 100.251,27.031 106.307,27.031C112.363,27.031 117.719,25.903 121.048,24.228C123.649,22.919 125.073,21.259 125.073,19.514C125.073,17.768 123.649,16.108 121.048,14.799C117.719,13.124 112.363,11.997 106.307,11.997ZM106.307,14.562C111.44,14.562 116.008,15.446 118.83,16.866C120.331,17.621 121.327,18.506 121.327,19.514C121.327,20.521 120.331,21.406 118.83,22.161C116.008,23.581 111.44,24.466 106.307,24.466C101.174,24.466 96.605,23.581 93.784,22.161C92.283,21.406 91.286,20.521 91.286,19.514C91.286,18.506 92.283,17.621 93.784,16.866C96.605,15.446 101.174,14.562 106.307,14.562Z"/>
        <g transform="matrix(0.744588,0,0,0.744588,22.8586,10.9873)">
            <path d="M106.307,24.979C102.677,24.813 99.398,24.203 96.786,23.327C93.827,22.335 91.781,21.031 91.929,19.514C91.929,18.563 90.802,17.791 89.413,17.791C88.025,17.791 86.898,18.563 86.898,19.514C87.11,21.697 89.292,23.763 93.265,25.038C96.657,26.127 101.256,26.748 106.307,26.517C106.927,26.517 107.43,26.173 107.43,25.748C107.43,25.324 106.927,24.979 106.307,24.979Z"/>
        </g>
        <g transform="matrix(0.376527,0,0,0.376527,55.7468,24.2665)">
            <path d="M106.307,24.227C102.859,23.916 99.873,23.146 97.461,22.2C95.67,21.498 94.539,20.583 94.163,19.65C94.136,19.582 94.374,19.583 94.388,19.514C94.388,17.634 92.159,16.108 89.413,16.108C86.668,16.108 84.439,17.634 84.439,19.514C84.868,21.74 86.388,23.933 89.935,25.338C93.824,26.878 99.693,27.866 106.307,27.269C107.533,27.269 108.528,26.587 108.528,25.748C108.528,24.909 107.533,24.227 106.307,24.227Z"/>
        </g>
    </g>
</svg>
