<?xml version="1.0" encoding="UTF-8" standalone="no"?>
<!DOCTYPE svg PUBLIC "-//W3C//DTD SVG 1.1//EN" "http://www.w3.org/Graphics/SVG/1.1/DTD/svg11.dtd">
<svg width="100%" height="100%" viewBox="0 0 500 500" version="1.1" xmlns="http://www.w3.org/2000/svg" xmlns:xlink="http://www.w3.org/1999/xlink" xml:space="preserve" xmlns:serif="http://www.serif.com/" style="fill-rule:evenodd;clip-rule:evenodd;stroke-linejoin:round;stroke-miterlimit:2;">
    <g transform="matrix(1.05186,0,0,1.05186,-8.89441,-7.56531)">
        <path d="M146.35,92.248C188.466,92.248 222.659,126.441 222.659,168.558C222.659,210.674 188.466,244.867 146.35,244.867C104.233,244.867 70.04,210.674 70.04,168.558C70.04,126.441 104.233,92.248 146.35,92.248ZM129.959,152.168L129.959,126.58C129.959,122.057 133.632,118.385 138.155,118.385L154.545,118.385C159.068,118.385 162.74,122.057 162.74,126.58L162.74,152.168L188.328,152.168C192.851,152.168 196.523,155.84 196.523,160.363L196.523,176.753C196.523,181.276 192.851,184.948 188.328,184.948L162.74,184.948L162.74,210.536C162.74,215.059 159.068,218.731 154.545,218.731L138.155,218.731C133.632,218.731 129.959,215.059 129.959,210.536L129.959,184.948L104.372,184.948C99.849,184.948 96.177,181.276 96.177,176.753L96.177,160.363C96.177,155.84 99.849,152.168 104.372,152.168L129.959,152.168Z"/>
    </g>
    <g transform="matrix(4.52618,0,0,4.21388,61.2952,-78.5387)">
        <path d="M83.132,107.671C83.239,107.851 83.515,108.353 83.682,108.962C83.851,109.581 83.896,110.289 83.684,110.933C83.371,111.888 82.463,112.967 79.906,112.967L75.614,112.967C74.979,112.967 74.463,112.413 74.463,111.731C74.463,111.049 74.979,110.495 75.614,110.495L79.906,110.495C80.453,110.495 80.871,110.44 81.184,110.325C81.354,110.263 81.478,110.221 81.514,110.111C81.563,109.963 81.513,109.802 81.474,109.66C81.371,109.286 81.188,108.993 81.188,108.993C81.165,108.957 81.144,108.919 81.125,108.881L74.684,95.999C74.384,95.398 74.594,94.648 75.154,94.325C75.713,94.003 76.411,94.228 76.712,94.829L83.132,107.671Z"/>
    </g>
    <g transform="matrix(4.52618,0,0,4.21388,61.2952,-78.5387)">
        <path d="M59.667,110.495L40.814,110.495C40.187,110.495 39.807,110.452 39.634,110.199C39.523,110.035 39.568,109.821 39.597,109.631C39.68,109.09 39.926,108.623 39.926,108.623C39.931,108.614 39.935,108.606 39.94,108.597L41.548,105.38C41.849,104.779 41.638,104.029 41.079,103.706C40.519,103.384 39.821,103.609 39.521,104.21L37.912,107.427C37.926,107.401 37.477,108.246 37.326,109.227C37.199,110.054 37.291,110.945 37.776,111.657C38.242,112.343 39.121,112.967 40.814,112.967L59.667,112.967C60.302,112.967 60.817,112.413 60.817,111.731C60.817,111.049 60.302,110.495 59.667,110.495Z"/>
    </g>
    <g transform="matrix(4.52618,0,0,4.21388,61.2952,-78.5387)">
        <path d="M53.272,81.933L54.137,80.202C54.438,79.601 54.228,78.851 53.668,78.528C53.109,78.205 52.41,78.431 52.11,79.032L51.244,80.763C50.944,81.364 51.154,82.114 51.714,82.437C52.273,82.759 52.971,82.534 53.272,81.933Z"/>
    </g>
    <g transform="matrix(3.84258,0,0,2.88817,122.258,29.4081)">
        <path d="M65.338,43.646L65.338,61.81L62.627,61.81L62.627,42.721C62.627,42.14 62.838,41.595 63.192,41.256L66.209,38.375L67.79,41.304L65.338,43.646Z"/>
    </g>
    <g transform="matrix(3.84258,0,0,2.88817,122.258,29.4081)">
        <path d="M45.367,43.64L42.941,41.299L44.533,38.38L47.518,41.261C47.87,41.6 48.078,42.143 48.078,42.721L48.078,79.152L45.367,79.152L45.367,43.64Z"/>
    </g>
    <g transform="matrix(2.66319,0,0,3.88961,97.2344,156.473)">
        <g transform="matrix(1,0,0,1,0,4.30848)">
            <path d="M121.636,15.205L121.636,32.66C121.636,33.728 120.604,34.677 119.012,35.478C116.149,36.919 111.516,37.823 106.307,37.823C101.098,37.823 96.464,36.919 93.601,35.478C92.01,34.677 90.978,33.728 90.978,32.66L90.978,15.205C90.978,14.614 90.277,14.134 89.413,14.134C88.55,14.134 87.849,14.614 87.849,15.205L87.849,32.66C87.849,34.345 89.238,35.941 91.748,37.204C95.035,38.858 100.327,39.966 106.307,39.966C112.287,39.966 117.579,38.858 120.866,37.204C123.375,35.941 124.765,34.345 124.765,32.66L124.765,15.205C124.765,14.614 124.064,14.134 123.2,14.134C122.337,14.134 121.636,14.614 121.636,15.205Z"/>
        </g>
        <path d="M106.307,12.208C100.327,12.208 95.035,13.315 91.748,14.97C89.238,16.233 87.849,17.829 87.849,19.514C87.849,21.199 89.238,22.795 91.748,24.058C95.035,25.712 100.327,26.819 106.307,26.819C112.287,26.819 117.579,25.712 120.866,24.058C123.375,22.795 124.765,21.199 124.765,19.514C124.765,17.829 123.375,16.233 120.866,14.97C117.579,13.315 112.287,12.208 106.307,12.208ZM106.307,14.351C111.516,14.351 116.149,15.255 119.012,16.696C120.604,17.497 121.636,18.445 121.636,19.514C121.636,20.582 120.604,21.531 119.012,22.332C116.149,23.773 111.516,24.677 106.307,24.677C101.098,24.677 96.464,23.773 93.601,22.332C92.01,21.531 90.978,20.582 90.978,19.514C90.978,18.445 92.01,17.497 93.601,16.696C96.464,15.255 101.098,14.351 106.307,14.351Z"/>
        <g transform="matrix(0.744588,0,0,0.744588,22.8586,10.9873)">
            <path d="M106.307,25.106C102.644,24.966 99.32,24.38 96.673,23.517C93.536,22.494 91.384,21.115 91.514,19.514C91.514,18.72 90.573,18.075 89.413,18.075C88.254,18.075 87.312,18.72 87.312,19.514C87.483,21.616 89.618,23.589 93.421,24.845C96.758,25.947 101.308,26.581 106.307,26.39C106.825,26.39 107.245,26.103 107.245,25.748C107.245,25.394 106.825,25.106 106.307,25.106Z"/>
        </g>
        <g transform="matrix(0.376527,0,0,0.376527,55.7468,24.2665)">
            <path d="M106.307,24.478C102.801,24.213 99.712,23.499 97.236,22.576C95.242,21.832 93.896,20.877 93.45,19.856C93.4,19.74 93.549,19.632 93.568,19.514C93.568,17.943 91.707,16.669 89.413,16.669C87.12,16.669 85.258,17.943 85.258,19.514C85.661,22.018 87.984,24.471 92.647,25.803C96.263,26.836 101.044,27.415 106.307,27.018C107.331,27.018 108.162,26.449 108.162,25.748C108.162,25.047 107.331,24.478 106.307,24.478Z"/>
        </g>
    </g>
    <g transform="matrix(2.41176,0,0,3.52239,9.66803,211.238)">
        <g transform="matrix(1,0,0,1,0,4.30848)">
            <path d="M121.732,15.205L121.732,32.66C121.732,33.747 120.689,34.716 119.069,35.531C116.193,36.978 111.539,37.889 106.307,37.889C101.074,37.889 96.421,36.978 93.544,35.531C91.925,34.716 90.882,33.747 90.882,32.66L90.882,15.205C90.882,14.65 90.224,14.2 89.413,14.2C88.603,14.2 87.945,14.65 87.945,15.205L87.945,32.66C87.945,34.326 89.323,35.902 91.805,37.151C95.079,38.799 100.351,39.9 106.307,39.9C112.263,39.9 117.535,38.799 120.809,37.151C123.29,35.902 124.669,34.326 124.669,32.66L124.669,15.205C124.669,14.65 124.011,14.2 123.2,14.2C122.39,14.2 121.732,14.65 121.732,15.205Z"/>
        </g>
        <path d="M106.307,12.274C100.351,12.274 95.079,13.375 91.805,15.023C89.323,16.272 87.945,17.848 87.945,19.514C87.945,21.18 89.323,22.756 91.805,24.005C95.079,25.653 100.351,26.754 106.307,26.754C112.263,26.754 117.535,25.653 120.809,24.005C123.29,22.756 124.669,21.18 124.669,19.514C124.669,17.848 123.29,16.272 120.809,15.023C117.535,13.375 112.263,12.274 106.307,12.274ZM106.307,14.285C111.539,14.285 116.193,15.195 119.069,16.643C120.689,17.458 121.732,18.427 121.732,19.514C121.732,20.601 120.689,21.569 119.069,22.385C116.193,23.832 111.539,24.743 106.307,24.743C101.074,24.743 96.421,23.832 93.544,22.385C91.925,21.569 90.882,20.601 90.882,19.514C90.882,18.427 91.925,17.458 93.544,16.643C96.421,15.195 101.074,14.285 106.307,14.285Z"/>
        <g transform="matrix(0.744588,0,0,0.744588,22.8586,10.9873)">
            <path d="M106.307,25.145C101.799,24.984 97.79,24.154 94.955,22.945C92.728,21.994 91.286,20.821 91.386,19.514C91.386,18.768 90.502,18.163 89.413,18.163C88.325,18.163 87.441,18.768 87.441,19.514C87.6,21.591 89.719,23.536 93.47,24.785C96.789,25.891 101.325,26.529 106.307,26.351C106.793,26.351 107.187,26.081 107.187,25.748C107.187,25.415 106.793,25.145 106.307,25.145Z"/>
        </g>
        <g transform="matrix(0.376527,0,0,0.376527,55.7468,24.2665)">
            <path d="M106.307,24.556C102.782,24.306 99.663,23.609 97.166,22.692C94.788,21.82 93.126,20.753 93.313,19.514C93.313,18.04 91.566,16.843 89.413,16.843C87.261,16.843 85.513,18.04 85.513,19.514C85.884,21.969 88.189,24.359 92.743,25.684C96.324,26.726 101.077,27.311 106.307,26.94C107.268,26.94 108.048,26.406 108.048,25.748C108.048,25.09 107.268,24.556 106.307,24.556Z"/>
        </g>
    </g>
    <g transform="matrix(1.9945,0,0,2.91298,155.332,310.017)">
        <g transform="matrix(1,0,0,1,0,4.30848)">
            <path d="M121.738,15.205L121.738,32.66C121.738,33.748 120.694,34.718 119.073,35.534C116.196,36.982 111.541,37.893 106.307,37.893C101.073,37.893 96.418,36.982 93.541,35.534C91.919,34.718 90.876,33.748 90.876,32.66L90.876,15.205C90.876,14.653 90.22,14.204 89.413,14.204C88.606,14.204 87.951,14.653 87.951,15.205L87.951,32.66C87.951,34.325 89.329,35.9 91.808,37.148C95.082,38.795 100.352,39.896 106.307,39.896C112.261,39.896 117.532,38.795 120.805,37.148C123.285,35.9 124.663,34.325 124.663,32.66L124.663,15.205C124.663,14.653 124.007,14.204 123.2,14.204C122.393,14.204 121.738,14.653 121.738,15.205Z"/>
        </g>
        <path d="M106.307,12.278C100.352,12.278 95.082,13.379 91.808,15.026C89.329,16.274 87.951,17.849 87.951,19.514C87.951,21.178 89.329,22.753 91.808,24.001C95.082,25.649 100.352,26.749 106.307,26.749C112.261,26.749 117.532,25.649 120.805,24.001C123.285,22.753 124.663,21.178 124.663,19.514C124.663,17.849 123.285,16.274 120.805,15.026C117.532,13.379 112.261,12.278 106.307,12.278ZM106.307,14.281C111.541,14.281 116.196,15.191 119.073,16.639C120.694,17.455 121.738,18.425 121.738,19.514C121.738,20.602 120.694,21.572 119.073,22.388C116.196,23.836 111.541,24.747 106.307,24.747C101.073,24.747 96.418,23.836 93.541,22.388C91.919,21.572 90.876,20.602 90.876,19.514C90.876,18.425 91.919,17.455 93.541,16.639C96.418,15.191 101.073,14.281 106.307,14.281Z"/>
        <g transform="matrix(0.744588,0,0,0.744588,22.8586,10.9873)">
            <path d="M106.307,25.148C101.798,24.987 97.788,24.158 94.952,22.948C92.722,21.997 91.278,20.822 91.377,19.514C91.377,18.772 90.497,18.169 89.413,18.169C88.329,18.169 87.449,18.772 87.449,19.514C87.607,21.59 89.725,23.532 93.473,24.781C96.791,25.887 101.326,26.526 106.307,26.348C106.791,26.348 107.184,26.079 107.184,25.748C107.184,25.417 106.791,25.148 106.307,25.148Z"/>
        </g>
        <g transform="matrix(0.376527,0,0,0.376527,55.7468,24.2665)">
            <path d="M106.307,24.561C102.781,24.312 99.66,23.616 97.161,22.7C94.776,21.826 93.11,20.756 93.297,19.514C93.297,18.046 91.557,16.854 89.413,16.854C87.27,16.854 85.529,18.046 85.529,19.514C85.898,21.965 88.203,24.352 92.75,25.677C96.328,26.719 101.079,27.304 106.307,26.935C107.264,26.935 108.041,26.403 108.041,25.748C108.041,25.093 107.264,24.561 106.307,24.561Z"/>
        </g>
    </g>
    <g transform="matrix(4.21388,0,0,4.21388,-23.5209,-149.002)">
        <path d="M80.782,58.801C78.038,58.801 75.81,61.028 75.81,63.772C75.81,66.516 78.038,68.744 80.782,68.744C83.526,68.744 85.753,66.516 85.753,63.772C85.753,61.028 83.526,58.801 80.782,58.801ZM80.782,60.778C82.434,60.778 83.776,62.12 83.776,63.772C83.776,65.425 82.434,66.766 80.782,66.766C79.129,66.766 77.788,65.425 77.788,63.772C77.788,62.12 79.129,60.778 80.782,60.778Z"/>
    </g>
    <g transform="matrix(1.88875,0,0,1.88875,146.698,-42.8791)">
        <path d="M80.782,57.583C77.366,57.583 74.593,60.356 74.593,63.772C74.593,67.188 77.366,69.961 80.782,69.961C84.197,69.961 86.971,67.188 86.971,63.772C86.971,60.356 84.197,57.583 80.782,57.583ZM80.782,61.995C81.762,61.995 82.559,62.792 82.559,63.772C82.559,64.753 81.762,65.549 80.782,65.549C79.801,65.549 79.005,64.753 79.005,63.772C79.005,62.792 79.801,61.995 80.782,61.995Z"/>
    </g>
    <g transform="matrix(0.846574,0,0,0.846574,186.754,17.9953)">
        <path d="M80.782,57.821C77.497,57.821 74.83,60.487 74.83,63.772C74.83,67.057 77.497,69.724 80.782,69.724C84.067,69.724 86.733,67.057 86.733,63.772C86.733,60.487 84.067,57.821 80.782,57.821ZM80.782,61.758C81.893,61.758 82.796,62.661 82.796,63.772C82.796,64.884 81.893,65.786 80.782,65.786C79.67,65.786 78.768,64.884 78.768,63.772C78.768,62.661 79.67,61.758 80.782,61.758Z"/>
    </g>
</svg>
