<?xml version="1.0" encoding="UTF-8" standalone="no"?><!DOCTYPE svg PUBLIC "-//W3C//DTD SVG 1.1//EN" "http://www.w3.org/Graphics/SVG/1.1/DTD/svg11.dtd"><svg width="100%" height="100%" viewBox="0 0 284 284" version="1.1" xmlns="http://www.w3.org/2000/svg" xmlns:xlink="http://www.w3.org/1999/xlink" xml:space="preserve" xmlns:serif="http://www.serif.com/" style="fill-rule:evenodd;clip-rule:evenodd;stroke-linejoin:round;stroke-miterlimit:2;"><g><path d="M232.079,93.237c0,-20.298 -16.514,-36.808 -36.808,-36.808l-107.077,0c-1.851,0 -3.347,1.496 -3.347,3.346c0,1.85 1.496,3.346 3.347,3.346l107.077,0c16.607,0 30.115,13.509 30.115,30.116c0,16.607 -13.508,30.115 -30.115,30.115l-107.077,0c-20.295,0 -36.808,16.513 -36.808,36.808c0,20.295 16.513,36.808 36.808,36.808l73.625,0l0,26.692c0,3.002 3.628,4.504 5.749,2.383l30.022,-30.022c0.331,-0.321 0.599,-0.71 0.776,-1.148c0.077,-0.187 0.077,-0.395 0.117,-0.592c0.047,-0.221 0.134,-0.425 0.134,-0.659c0,-0.004 -0.003,-0.007 -0.003,-0.014c0.003,-0.863 -0.321,-1.73 -0.984,-2.392l-30.062,-30.062c-2.121,-2.122 -5.749,-0.619 -5.749,2.379l0,26.743l-73.625,0c-16.607,0 -30.116,-13.509 -30.116,-30.116c0,-16.607 13.509,-30.116 30.116,-30.116l107.077,0c20.294,0 36.808,-16.513 36.808,-36.807"/><path d="M176.194,86.149c-1.833,-0.348 -3.573,0.837 -3.921,2.647c-0.281,1.453 -0.425,2.948 -0.425,4.431c-0.004,1.111 0.077,2.235 0.231,3.339c0.244,1.666 1.673,2.868 3.312,2.868c0.158,0 0.315,-0.01 0.479,-0.03c1.83,-0.265 3.098,-1.961 2.837,-3.792c-0.11,-0.773 -0.17,-1.559 -0.167,-2.375c0,-1.068 0.101,-2.135 0.301,-3.166c0.352,-1.817 -0.833,-3.574 -2.647,-3.922"/><path d="M190.914,73.347c-0.686,-1.713 -2.626,-2.54 -4.35,-1.857c-2.419,0.97 -4.651,2.332 -6.629,4.045c-1.398,1.208 -1.549,3.323 -0.341,4.719c0.663,0.762 1.596,1.157 2.53,1.157c0.78,0 1.556,-0.267 2.192,-0.816c1.415,-1.228 3.011,-2.202 4.744,-2.898c1.71,-0.686 2.544,-2.637 1.854,-4.35"/><path d="M188.318,108.462c-1.697,-0.777 -3.243,-1.824 -4.595,-3.116c-1.335,-1.281 -3.453,-1.228 -4.728,0.108c-1.278,1.338 -1.228,3.456 0.107,4.728c1.891,1.81 4.059,3.279 6.432,4.363c0.451,0.208 0.923,0.305 1.388,0.305c1.272,0 2.483,-0.727 3.045,-1.955c0.77,-1.683 0.03,-3.667 -1.649,-4.433"/><path d="M196.75,113.545c0.375,1.529 1.743,2.556 3.249,2.556c0.261,0 0.529,-0.03 0.793,-0.094c2.543,-0.619 4.946,-1.649 7.141,-3.061c1.556,-1.001 2.004,-3.072 1.004,-4.625c-1.001,-1.549 -3.072,-1.997 -4.625,-1.004c-1.569,1.011 -3.282,1.744 -5.099,2.185c-1.794,0.435 -2.898,2.246 -2.463,4.043"/><path d="M213.156,102.967c0.362,0.124 0.73,0.184 1.094,0.184c1.386,0 2.684,-0.87 3.163,-2.252c0.849,-2.456 1.281,-5.036 1.281,-7.656c0.003,-2.242 -0.314,-4.463 -0.937,-6.602c-0.518,-1.773 -2.372,-2.784 -4.152,-2.272c-1.777,0.526 -2.791,2.379 -2.272,4.156c0.448,1.523 0.672,3.105 0.669,4.712c0,1.877 -0.308,3.721 -0.914,5.474c-0.605,1.747 0.322,3.651 2.068,4.256"/><path d="M199.986,77.178c1.79,0.522 3.466,1.342 4.986,2.426c0.588,0.422 1.268,0.623 1.94,0.623c1.048,0 2.075,-0.485 2.727,-1.402c1.075,-1.503 0.727,-3.591 -0.776,-4.665c-2.131,-1.522 -4.484,-2.667 -6.993,-3.406c-1.777,-0.519 -3.634,0.498 -4.153,2.272c-0.522,1.773 0.495,3.63 2.269,4.152"/><path d="M64.77,160.16c0,12.913 10.511,23.423 23.424,23.423c12.912,0 23.423,-10.51 23.423,-23.423c0,-12.916 -10.511,-23.423 -23.423,-23.423c-12.913,0 -23.424,10.507 -23.424,23.423"/></g></svg>