<?xml version="1.0" encoding="UTF-8" standalone="no"?>
<!DOCTYPE svg PUBLIC "-//W3C//DTD SVG 1.1//EN" "http://www.w3.org/Graphics/SVG/1.1/DTD/svg11.dtd">
<svg width="100%" height="100%" viewBox="0 0 284 284" version="1.1" xmlns="http://www.w3.org/2000/svg" xmlns:xlink="http://www.w3.org/1999/xlink" xml:space="preserve" xmlns:serif="http://www.serif.com/" style="fill-rule:evenodd;clip-rule:evenodd;stroke-linejoin:round;stroke-miterlimit:2;">
    <g transform="matrix(1,0,0,1,2.15715,1.97144)">
        <path d="M92.744,232C101.375,232.164 108.421,242.335 104.364,250.75C100.823,258.094 89.668,260.376 83.553,254.546C76.371,247.699 80.453,232.228 92.408,232C92.576,231.999 92.576,231.999 92.744,232ZM92.477,237.5C86.727,237.609 82.473,245.805 87.283,250.502C91.656,254.772 101.344,251.043 100.037,243.735C99.415,240.256 96.121,237.477 92.477,237.5Z"/>
    </g>
    <path d="M187.298,146.38C174.599,156.556 158.795,162.092 142.521,162.065C103.17,162.065 70.788,129.684 70.788,90.333C70.788,50.981 103.17,18.6 142.521,18.6C181.873,18.6 214.254,50.981 214.254,90.333C214.281,106.606 208.744,122.41 198.568,135.11L262.076,198.617L250.806,209.887L187.298,146.38ZM142.521,34.54C173.287,34.54 198.313,59.567 198.313,90.333C198.313,121.098 173.287,146.125 142.521,146.125C111.756,146.125 86.729,121.098 86.729,90.333C86.729,59.567 111.756,34.54 142.521,34.54Z"/>
    <g transform="matrix(1.33927,0,0,1.95601,-58.0864,143.312)">
        <g transform="matrix(0.744588,0,0,0.744588,22.8586,10.9873)">
            <path d="M106.307,24.982C102.676,24.817 99.396,24.206 96.784,23.331C93.821,22.338 91.773,21.033 91.92,19.514C91.92,18.566 90.797,17.797 89.413,17.797C88.03,17.797 86.906,18.566 86.906,19.514C87.118,21.696 89.298,23.759 93.268,25.034C96.659,26.123 101.257,26.744 106.307,26.514C106.925,26.514 107.426,26.171 107.426,25.748C107.426,25.325 106.925,24.982 106.307,24.982Z"/>
        </g>
        <g transform="matrix(0.376527,0,0,0.376527,55.7468,24.2665)">
            <path d="M106.307,24.233C102.858,23.922 99.87,23.153 97.456,22.208C95.661,21.505 94.526,20.589 94.148,19.654C94.121,19.585 94.358,19.583 94.371,19.514C94.371,17.64 92.149,16.119 89.413,16.119C86.677,16.119 84.456,17.64 84.456,19.514C84.882,21.737 86.402,23.926 89.943,25.33C93.829,26.871 99.696,27.858 106.307,27.264C107.528,27.264 108.52,26.585 108.52,25.748C108.52,24.912 107.528,24.233 106.307,24.233Z"/>
        </g>
        <g transform="matrix(1,0,0,1,0,4.30848)">
            <path d="M121.334,15.205L121.334,32.66C121.334,33.669 120.336,34.555 118.833,35.311C116.011,36.732 111.441,37.616 106.307,37.616C101.172,37.616 96.602,36.732 93.78,35.311C92.277,34.555 91.28,33.669 91.28,32.66L91.28,15.205C91.28,14.5 90.444,13.927 89.413,13.927C88.383,13.927 87.547,14.5 87.547,15.205L87.547,32.66C87.547,34.404 88.971,36.063 91.569,37.371C94.897,39.046 100.252,40.172 106.307,40.172C112.361,40.172 117.717,39.046 121.045,37.371C123.643,36.063 125.067,34.404 125.067,32.66L125.067,15.205C125.067,14.5 124.23,13.927 123.2,13.927C122.17,13.927 121.334,14.5 121.334,15.205Z"/>
        </g>
        <path d="M106.307,12.001C100.252,12.001 94.897,13.128 91.569,14.803C88.971,16.111 87.547,17.769 87.547,19.514C87.547,21.258 88.971,22.917 91.569,24.224C94.897,25.9 100.252,27.026 106.307,27.026C112.361,27.026 117.717,25.9 121.045,24.224C123.643,22.917 125.067,21.258 125.067,19.514C125.067,17.769 123.643,16.111 121.045,14.803C117.717,13.128 112.361,12.001 106.307,12.001ZM106.307,14.557C111.441,14.557 116.011,15.442 118.833,16.863C120.336,17.619 121.334,18.505 121.334,19.514C121.334,20.523 120.336,21.409 118.833,22.165C116.011,23.585 111.441,24.47 106.307,24.47C101.172,24.47 96.602,23.585 93.78,22.165C92.277,21.409 91.28,20.523 91.28,19.514C91.28,18.505 92.277,17.619 93.78,16.863C96.602,15.442 101.172,14.557 106.307,14.557Z"/>
    </g>
    <g transform="matrix(2.05242,0,0,2.99758,-56.7011,136.9)">
        <g transform="matrix(0.744588,0,0,0.744588,22.8586,10.9873)">
            <path d="M106.307,24.948C102.685,24.776 99.417,24.159 96.814,23.28C93.899,22.296 91.879,21.011 92.031,19.514C92.031,18.525 90.858,17.722 89.413,17.722C87.969,17.722 86.796,18.525 86.796,19.514C87.019,21.717 89.211,23.806 93.227,25.086C96.632,26.171 101.243,26.789 106.307,26.548C106.952,26.548 107.475,26.19 107.475,25.748C107.475,25.307 106.952,24.948 106.307,24.948Z"/>
        </g>
        <g transform="matrix(0.376527,0,0,0.376527,55.7468,24.2665)">
            <path d="M106.307,24.166C102.873,23.843 99.913,23.059 97.516,22.108C95.905,21.469 94.883,20.62 94.327,19.79C94.273,19.711 94.405,19.624 94.384,19.543C94.372,19.495 94.58,19.562 94.589,19.514C94.589,17.558 92.27,15.97 89.413,15.97C86.557,15.97 84.237,17.558 84.237,19.514C84.691,21.776 86.214,24.013 89.832,25.429C93.758,26.965 99.656,27.955 106.307,27.33C107.582,27.33 108.618,26.621 108.618,25.748C108.618,24.875 107.582,24.166 106.307,24.166Z"/>
        </g>
        <g transform="matrix(1,0,0,1,0,4.30848)">
            <path d="M121.251,15.205L121.251,32.66C121.251,33.653 120.263,34.521 118.785,35.266C115.973,36.681 111.421,37.56 106.307,37.56C101.193,37.56 96.64,36.681 93.829,35.266C92.35,34.521 91.362,33.653 91.362,32.66L91.362,15.205C91.362,14.469 90.489,13.871 89.413,13.871C88.338,13.871 87.464,14.469 87.464,15.205L87.464,32.66C87.464,34.421 88.898,36.096 91.52,37.416C94.859,39.097 100.232,40.229 106.307,40.229C112.381,40.229 117.754,39.097 121.093,37.416C123.716,36.096 125.149,34.421 125.149,32.66L125.149,15.205C125.149,14.469 124.276,13.871 123.2,13.871C122.125,13.871 121.251,14.469 121.251,15.205Z"/>
        </g>
        <path d="M106.307,11.945C100.232,11.945 94.859,13.077 91.52,14.758C88.898,16.078 87.464,17.753 87.464,19.514C87.464,21.274 88.898,22.95 91.52,24.27C94.859,25.95 100.232,27.083 106.307,27.083C112.381,27.083 117.754,25.95 121.093,24.27C123.716,22.95 125.149,21.274 125.149,19.514C125.149,17.753 123.716,16.078 121.093,14.758C117.754,13.077 112.381,11.945 106.307,11.945ZM106.307,14.614C111.421,14.614 115.973,15.493 118.785,16.908C120.263,17.652 121.251,18.521 121.251,19.514C121.251,20.506 120.263,21.375 118.785,22.119C115.973,23.534 111.421,24.414 106.307,24.414C101.193,24.414 96.64,23.534 93.829,22.119C92.35,21.375 91.362,20.506 91.362,19.514C91.362,18.521 92.35,17.652 93.829,16.908C96.64,15.493 101.193,14.614 106.307,14.614Z"/>
    </g>
</svg>
