<?xml version="1.0" encoding="UTF-8" standalone="no"?><!DOCTYPE svg PUBLIC "-//W3C//DTD SVG 1.1//EN" "http://www.w3.org/Graphics/SVG/1.1/DTD/svg11.dtd"><svg width="100%" height="100%" viewBox="0 0 284 284" version="1.1" xmlns="http://www.w3.org/2000/svg" xmlns:xlink="http://www.w3.org/1999/xlink" xml:space="preserve" xmlns:serif="http://www.serif.com/" style="fill-rule:evenodd;clip-rule:evenodd;stroke-linejoin:round;stroke-miterlimit:2;"><g><path d="M131.347,88.029l97.339,0c4.847,0 8.886,-4.039 8.886,-8.886c0,-4.846 -4.039,-8.885 -8.886,-8.885l-97.339,0c-4.847,0 -8.886,4.039 -8.886,8.885c0,4.847 4.039,8.886 8.886,8.886Z" style="fill-rule:nonzero;"/><path d="M88.938,58.747l-19.993,21.608l-7.472,-8.078c-3.433,-3.635 -9.088,-3.837 -12.723,-0.404c-3.635,3.231 -3.837,8.886 -0.404,12.521l13.935,15.146c1.615,1.818 4.039,2.827 6.462,2.827c2.423,0 4.847,-1.009 6.462,-2.827l26.658,-28.676c3.433,-3.635 3.231,-9.29 -0.404,-12.521c-3.433,-3.433 -9.088,-3.231 -12.521,0.404Z" style="fill-rule:nonzero;"/><path d="M228.888,132.862l-97.541,0c-4.847,0 -8.886,4.039 -8.886,8.885c0,4.847 4.039,8.886 8.886,8.886l97.339,0c4.847,0 8.886,-4.039 8.886,-8.886c0,-4.846 -3.837,-8.885 -8.684,-8.885Z" style="fill-rule:nonzero;"/><path d="M88.938,121.351l-19.993,21.608l-7.472,-8.078c-3.433,-3.635 -9.088,-3.837 -12.723,-0.404c-3.635,3.231 -3.837,8.886 -0.404,12.521l13.935,15.146c1.615,1.818 4.039,2.827 6.462,2.827c2.423,0 4.847,-1.009 6.462,-2.827l26.658,-28.677c3.433,-3.635 3.231,-9.289 -0.404,-12.52c-3.433,-3.433 -9.088,-3.231 -12.521,0.404Z" style="fill-rule:nonzero;"/><path d="M228.888,195.466l-97.541,0c-4.847,0 -8.886,4.038 -8.886,8.885c0,4.847 4.039,8.886 8.886,8.886l97.339,0c4.847,0 8.886,-4.039 8.886,-8.886c0,-4.847 -3.837,-8.885 -8.684,-8.885Z" style="fill-rule:nonzero;"/><path d="M88.938,183.954l-19.993,21.609l-7.472,-8.078c-3.433,-3.635 -9.088,-3.837 -12.723,-0.404c-3.635,3.433 -3.837,9.088 -0.404,12.521l13.935,15.146c1.615,1.818 4.039,2.827 6.462,2.827c2.423,0 4.847,-1.009 6.462,-2.827l26.86,-28.475c3.433,-3.635 3.231,-9.289 -0.404,-12.52c-3.635,-3.434 -9.29,-3.232 -12.723,0.201Z" style="fill-rule:nonzero;"/></g></svg>