<?xml version="1.0" encoding="UTF-8" standalone="no"?>
<!DOCTYPE svg PUBLIC "-//W3C//DTD SVG 1.1//EN" "http://www.w3.org/Graphics/SVG/1.1/DTD/svg11.dtd">
<svg width="100%" height="100%" viewBox="0 0 284 284" version="1.1" xmlns="http://www.w3.org/2000/svg" xmlns:xlink="http://www.w3.org/1999/xlink" xml:space="preserve" xmlns:serif="http://www.serif.com/" style="fill-rule:evenodd;clip-rule:evenodd;stroke-linejoin:round;stroke-miterlimit:2;">
    <path d="M90.755,176.998L75.784,176.998C49.172,176.998 27.591,155.416 27.591,128.804C27.591,102.898 48.086,81.95 73.723,80.849C72.981,62.392 79.317,43.628 93.381,29.564C106.729,16.216 124.219,9.59 141.732,9.59C159.246,9.59 176.807,16.209 190.163,29.564C200.528,39.929 206.703,52.898 209.028,66.343C235.55,70.651 255.874,93.5 255.874,121.195C255.874,151.954 230.83,176.997 200.071,176.998L191.69,176.998C188.004,173 185.087,169.57 180.336,166.852L200.071,166.852C225.347,166.852 245.728,146.47 245.728,121.195C245.728,97.328 227.545,77.81 204.272,75.697C201.892,75.49 199.965,73.629 199.675,71.258C198.212,58.651 192.715,46.463 183.029,36.778C171.622,25.37 156.676,19.736 141.732,19.736C126.789,19.736 111.93,25.362 100.514,36.778C87.321,49.971 81.812,67.888 83.869,85.05C83.895,85.26 83.909,85.472 83.909,85.684C83.909,88.467 81.618,90.757 78.835,90.757L75.784,90.757C54.618,90.757 37.736,107.638 37.736,128.804C37.736,149.97 54.618,166.852 75.784,166.852L101.899,166.852C97.149,169.57 94.441,173 90.755,176.998ZM141.732,70.465C143.089,70.491 144.416,71.069 145.141,71.733L173.042,97.098C175.127,98.913 175.228,102.335 173.438,104.312C171.648,106.288 168.194,106.427 166.225,104.629L146.805,86.952L146.805,141.487C146.805,144.289 144.535,146.56 141.732,146.56C138.93,146.56 136.659,144.289 136.659,141.487L136.659,86.952L117.239,104.629C115.27,106.427 111.91,106.199 110.026,104.312C108.073,102.355 108.438,98.879 110.422,97.098L138.324,71.734C139.441,70.713 140.386,70.461 141.732,70.465Z" style="fill-rule:nonzero;"/>
    <g transform="matrix(2.41576,0,0,3.52825,-114.812,117.408)">
        <g transform="matrix(0.744588,0,0,0.744588,22.8586,10.9873)">
            <path d="M106.307,24.948C102.685,24.776 99.417,24.159 96.814,23.28C93.899,22.296 91.879,21.011 92.031,19.514C92.031,18.525 90.858,17.722 89.413,17.722C87.969,17.722 86.796,18.525 86.796,19.514C87.019,21.717 89.211,23.806 93.227,25.086C96.632,26.171 101.243,26.789 106.307,26.548C106.952,26.548 107.475,26.19 107.475,25.748C107.475,25.307 106.952,24.948 106.307,24.948Z"/>
        </g>
        <g transform="matrix(0.376527,0,0,0.376527,55.7468,24.2665)">
            <path d="M106.307,24.166C102.873,23.843 99.913,23.059 97.516,22.108C95.905,21.469 94.883,20.62 94.327,19.79C94.273,19.711 94.405,19.624 94.384,19.543C94.372,19.495 94.58,19.562 94.589,19.514C94.589,17.558 92.27,15.97 89.413,15.97C86.557,15.97 84.237,17.558 84.237,19.514C84.691,21.776 86.214,24.013 89.832,25.429C93.758,26.965 99.656,27.955 106.307,27.33C107.582,27.33 108.618,26.621 108.618,25.748C108.618,24.875 107.582,24.166 106.307,24.166Z"/>
        </g>
        <g transform="matrix(1,0,0,1,0,4.30848)">
            <path d="M121.251,15.205L121.251,32.66C121.251,33.653 120.263,34.521 118.785,35.266C115.973,36.681 111.421,37.56 106.307,37.56C101.193,37.56 96.64,36.681 93.829,35.266C92.35,34.521 91.362,33.653 91.362,32.66L91.362,15.205C91.362,14.469 90.489,13.871 89.413,13.871C88.338,13.871 87.464,14.469 87.464,15.205L87.464,32.66C87.464,34.421 88.898,36.096 91.52,37.416C94.859,39.097 100.232,40.229 106.307,40.229C112.381,40.229 117.754,39.097 121.093,37.416C123.716,36.096 125.149,34.421 125.149,32.66L125.149,15.205C125.149,14.469 124.276,13.871 123.2,13.871C122.125,13.871 121.251,14.469 121.251,15.205Z"/>
        </g>
        <path d="M106.307,11.945C100.232,11.945 94.859,13.077 91.52,14.758C88.898,16.078 87.464,17.753 87.464,19.514C87.464,21.274 88.898,22.95 91.52,24.27C94.859,25.95 100.232,27.083 106.307,27.083C112.381,27.083 117.754,25.95 121.093,24.27C123.716,22.95 125.149,21.274 125.149,19.514C125.149,17.753 123.716,16.078 121.093,14.758C117.754,13.077 112.381,11.945 106.307,11.945ZM106.307,14.614C111.421,14.614 115.973,15.493 118.785,16.908C120.263,17.652 121.251,18.521 121.251,19.514C121.251,20.506 120.263,21.375 118.785,22.119C115.973,23.534 111.421,24.414 106.307,24.414C101.193,24.414 96.64,23.534 93.829,22.119C92.35,21.375 91.362,20.506 91.362,19.514C91.362,18.521 92.35,17.652 93.829,16.908C96.64,15.493 101.193,14.614 106.307,14.614Z"/>
    </g>
</svg>
