<?xml version="1.0" encoding="UTF-8" standalone="no"?><!DOCTYPE svg PUBLIC "-//W3C//DTD SVG 1.1//EN" "http://www.w3.org/Graphics/SVG/1.1/DTD/svg11.dtd"><svg width="100%" height="100%" viewBox="0 0 16 20" version="1.1" xmlns="http://www.w3.org/2000/svg" xmlns:xlink="http://www.w3.org/1999/xlink" xml:space="preserve" xmlns:serif="http://www.serif.com/" style="fill-rule:evenodd;clip-rule:evenodd;stroke-linejoin:round;stroke-miterlimit:2;"><path d="M4.946,11.745c0.199,0 0.397,-0.017 0.593,-0.051c0.879,-0.153 1.602,-0.642 2.034,-1.375c0.841,-1.429 0.498,-3.348 -0.766,-4.277c-1.017,-0.748 -2.332,-0.822 -3.433,-0.193c-0.858,0.489 -1.476,1.538 -1.575,2.672c-0.087,1.002 0.244,1.892 0.909,2.444c0.604,0.501 1.423,0.78 2.238,0.78Zm-1.076,-5.028c0.341,-0.194 0.71,-0.291 1.078,-0.291c0.445,0 0.886,0.142 1.266,0.421c0.848,0.624 1.076,1.981 0.498,2.964c-0.362,0.611 -0.931,0.826 -1.345,0.898c-0.704,0.124 -1.497,-0.079 -2.02,-0.513c-0.409,-0.34 -0.61,-0.918 -0.552,-1.588c0.071,-0.804 0.502,-1.564 1.075,-1.891Z" style="fill-rule:nonzero;"/><path d="M0.957,18.084c2.706,-0.095 5.447,-0.092 8.144,0.013l0.02,0c0.261,0 0.479,-0.202 0.498,-0.464c0.12,-1.671 -0.49,-3.344 -1.592,-4.365c-0.915,-0.847 -2.075,-1.194 -3.353,-1.004c-0.985,0.145 -1.822,0.456 -2.489,0.923c-0.821,0.575 -1.385,1.409 -1.548,2.291c-0.05,0.271 0.129,0.532 0.401,0.583c0.271,0.05 0.532,-0.129 0.583,-0.401c0.116,-0.625 0.53,-1.228 1.138,-1.653c0.539,-0.377 1.232,-0.63 2.063,-0.753c0.969,-0.145 1.843,0.115 2.526,0.749c0.781,0.724 1.253,1.872 1.286,3.078c-2.558,-0.086 -5.148,-0.084 -7.71,0.006c-0.276,0.01 -0.492,0.241 -0.482,0.517c0.008,0.274 0.252,0.501 0.515,0.48Z" style="fill-rule:nonzero;"/><path d="M15.325,12.774c-0.003,-0.008 -0.006,-0.015 -0.009,-0.023l-1.956,-4.241l0,-1.525c0.125,-0.025 0.219,-0.134 0.219,-0.266c0,-0.15 -0.121,-0.272 -0.272,-0.272l-2.216,0c-0.151,0 -0.272,0.121 -0.272,0.272c0,0.15 0.121,0.272 0.272,0.272l0.011,0l0,1.519l-1.956,4.241c-0.003,0.008 -0.006,0.015 -0.008,0.023c-0.07,0.225 -0.031,0.475 0.106,0.667l0.027,0.039c0.143,0.201 0.375,0.321 0.622,0.321l4.677,0c0.246,0 0.479,-0.12 0.621,-0.321l0.028,-0.039c0.136,-0.192 0.176,-0.442 0.106,-0.667Zm-3.864,-4.144c0.011,-0.024 0.017,-0.051 0.017,-0.078l0,-1.561l1.506,0l0,1.561c0,0.027 0.006,0.054 0.017,0.078l0.901,1.955c-0.991,0.165 -1.622,0.585 -2.361,0.602c-0.331,0.007 -0.799,-0.078 -1.183,-0.164l1.103,-2.393Z" style="fill-rule:nonzero;"/><path d="M12.321,6.084c0.381,0 0.69,-0.31 0.69,-0.69c0,-0.381 -0.309,-0.691 -0.69,-0.691c-0.38,0 -0.69,0.31 -0.69,0.691c0,0.38 0.31,0.69 0.69,0.69Zm0,-1.13c0.242,0 0.439,0.197 0.439,0.44c0,0.242 -0.197,0.439 -0.439,0.439c-0.242,0 -0.439,-0.197 -0.439,-0.439c0,-0.243 0.197,-0.44 0.439,-0.44Z" style="fill-rule:nonzero;"/><path d="M11.712,4.459c0.246,0 0.446,-0.2 0.446,-0.446c0,-0.246 -0.2,-0.446 -0.446,-0.446c-0.245,0 -0.446,0.2 -0.446,0.446c0,0.246 0.2,0.446 0.446,0.446Zm0,-0.73c0.157,0 0.284,0.128 0.284,0.284c0,0.157 -0.127,0.284 -0.284,0.284c-0.156,0 -0.283,-0.127 -0.283,-0.284c0,-0.156 0.127,-0.284 0.283,-0.284Z" style="fill-rule:nonzero;"/><path d="M13.576,4.939c0.51,0 0.925,-0.416 0.925,-0.926c0,-0.51 -0.415,-0.925 -0.925,-0.925c-0.51,0 -0.925,0.415 -0.925,0.925c0,0.51 0.415,0.926 0.925,0.926Zm0,-1.6c0.372,0 0.674,0.302 0.674,0.674c0,0.372 -0.302,0.674 -0.674,0.674c-0.372,0 -0.674,-0.302 -0.674,-0.674c0,-0.372 0.302,-0.674 0.674,-0.674Z" style="fill-rule:nonzero;"/></svg>