<?xml version="1.0" encoding="UTF-8" standalone="no"?><!DOCTYPE svg PUBLIC "-//W3C//DTD SVG 1.1//EN" "http://www.w3.org/Graphics/SVG/1.1/DTD/svg11.dtd"><svg width="100%" height="100%" viewBox="0 0 16 20" version="1.1" xmlns="http://www.w3.org/2000/svg" xmlns:xlink="http://www.w3.org/1999/xlink" xml:space="preserve" xmlns:serif="http://www.serif.com/" style="fill-rule:evenodd;clip-rule:evenodd;stroke-linejoin:round;stroke-miterlimit:2;"><g><path d="M7.652,17.985c-0.047,0 -0.093,-0.01 -0.137,-0.028l-4.87,-2.087c-0.128,-0.055 -0.211,-0.181 -0.211,-0.32l0,-6.262c0,-0.139 0.083,-0.265 0.211,-0.319l4.87,-2.087c0.082,-0.036 0.175,-0.038 0.259,-0.006l5.566,2.087c0.136,0.051 0.226,0.181 0.226,0.325l0,6.262c0,0.145 -0.09,0.275 -0.226,0.326l-5.566,2.087c-0.039,0.014 -0.08,0.022 -0.122,0.022Zm-4.522,-2.665l4.53,1.942l5.21,-1.953l0,-5.779l-5.21,-1.954l-4.53,1.942l0,5.802Z" style="fill-rule:nonzero;"/><path d="M5.565,15.696c-0.045,0 -0.092,-0.009 -0.136,-0.028l-1.391,-0.591c-0.177,-0.075 -0.26,-0.279 -0.185,-0.456c0.075,-0.177 0.281,-0.259 0.456,-0.184l1.391,0.591c0.177,0.075 0.26,0.279 0.185,0.456c-0.057,0.133 -0.185,0.212 -0.32,0.212Z" style="fill-rule:nonzero;"/><path d="M7.652,11.723c-0.047,0 -0.093,-0.009 -0.137,-0.028l-4.87,-2.087c-0.177,-0.075 -0.258,-0.28 -0.183,-0.457c0.076,-0.176 0.282,-0.259 0.457,-0.183l4.741,2.033l5.435,-2.039c0.179,-0.067 0.381,0.024 0.448,0.203c0.069,0.18 -0.023,0.381 -0.203,0.448l-5.566,2.087c-0.039,0.016 -0.08,0.023 -0.122,0.023Z" style="fill-rule:nonzero;"/><path d="M7.652,17.985c-0.192,0 -0.348,-0.156 -0.348,-0.348l0,-6.261c0,-0.192 0.156,-0.348 0.348,-0.348c0.192,0 0.348,0.156 0.348,0.348l0,6.261c0,0.192 -0.156,0.348 -0.348,0.348Z" style="fill-rule:nonzero;"/><path d="M9.739,13.379c-0.07,0 -0.139,-0.021 -0.198,-0.062c-0.094,-0.065 -0.15,-0.171 -0.15,-0.286l0,-2.202l-1.871,-0.772c-0.131,-0.053 -0.216,-0.18 -0.216,-0.321c0,-0.14 0.084,-0.268 0.212,-0.322l1.364,-0.581c0.095,-0.049 0.206,-0.055 0.305,-0.011l2.087,0.935c0.126,0.056 0.206,0.18 0.206,0.318l0,2.435c0,0.144 -0.089,0.274 -0.225,0.325l-1.391,0.522c-0.041,0.015 -0.081,0.022 -0.123,0.022Zm-1.189,-3.649l1.321,0.545c0.131,0.053 0.216,0.18 0.216,0.321l0,1.933l0.696,-0.261l0,-1.969l-1.74,-0.779l-0.493,0.21Z" style="fill-rule:nonzero;"/></g></svg>