<?xml version="1.0" encoding="UTF-8" standalone="no"?><!DOCTYPE svg PUBLIC "-//W3C//DTD SVG 1.1//EN" "http://www.w3.org/Graphics/SVG/1.1/DTD/svg11.dtd"><svg width="100%" height="100%" viewBox="0 0 16 20" version="1.1" xmlns="http://www.w3.org/2000/svg" xmlns:xlink="http://www.w3.org/1999/xlink" xml:space="preserve" xmlns:serif="http://www.serif.com/" style="fill-rule:evenodd;clip-rule:evenodd;stroke-linejoin:round;stroke-miterlimit:2;"><path d="M4.946,11.745c0.199,0 0.397,-0.017 0.593,-0.051c0.879,-0.153 1.602,-0.642 2.034,-1.375c0.841,-1.429 0.498,-3.348 -0.766,-4.277c-1.017,-0.748 -2.332,-0.822 -3.433,-0.193c-0.858,0.489 -1.476,1.538 -1.575,2.672c-0.087,1.002 0.244,1.892 0.909,2.444c0.604,0.501 1.423,0.78 2.238,0.78Zm-1.076,-5.028c0.341,-0.194 0.71,-0.291 1.078,-0.291c0.445,0 0.886,0.142 1.266,0.421c0.848,0.624 1.076,1.981 0.498,2.964c-0.362,0.611 -0.931,0.826 -1.345,0.898c-0.704,0.124 -1.497,-0.079 -2.02,-0.513c-0.409,-0.34 -0.61,-0.918 -0.552,-1.588c0.071,-0.804 0.502,-1.564 1.075,-1.891Z" style="fill-rule:nonzero;"/><path d="M0.957,18.084c2.706,-0.095 5.447,-0.092 8.144,0.013l0.02,0c0.261,0 0.479,-0.202 0.498,-0.464c0.12,-1.671 -0.49,-3.344 -1.592,-4.365c-0.915,-0.847 -2.075,-1.194 -3.353,-1.004c-0.985,0.145 -1.822,0.456 -2.489,0.923c-0.821,0.575 -1.385,1.409 -1.548,2.291c-0.05,0.271 0.129,0.532 0.401,0.583c0.271,0.05 0.532,-0.129 0.583,-0.401c0.116,-0.625 0.53,-1.228 1.138,-1.653c0.539,-0.377 1.232,-0.63 2.063,-0.753c0.969,-0.145 1.843,0.115 2.526,0.749c0.781,0.724 1.253,1.872 1.286,3.078c-2.558,-0.086 -5.148,-0.084 -7.71,0.006c-0.276,0.01 -0.492,0.241 -0.482,0.517c0.008,0.274 0.252,0.501 0.515,0.48Z" style="fill-rule:nonzero;"/><path d="M11.864,4.179c-0.007,0.001 -0.014,0.002 -0.021,0.003c-0.041,0.006 -0.078,0.024 -0.109,0.051c-0.001,0.001 -0.002,0.002 -0.003,0.003c-0.02,0.015 -0.396,0.284 -0.968,0.571c-0.587,0.294 -1.351,0.583 -2.027,0.583l-0.209,0l0,2.999c0,1.532 0.834,2.586 1.65,3.237c0.817,0.651 1.636,0.923 1.636,0.923l0.065,0.022l0.067,-0.022c0,0 0.819,-0.272 1.636,-0.923c0.816,-0.651 1.65,-1.705 1.65,-3.237l0,-2.999l-0.211,0c-0.676,0 -1.439,-0.289 -2.026,-0.583c-0.576,-0.289 -0.959,-0.565 -0.974,-0.575c-0.031,-0.028 -0.07,-0.046 -0.111,-0.052c-0.001,0 -0.002,0 -0.003,0c-0.006,0 -0.013,-0.001 -0.019,-0.001c-0.001,0 -0.002,0 -0.003,0c-0.007,0 -0.013,0 -0.02,0l0,0Z"/><path d="M13.543,6.848c-0.119,0.003 -0.231,0.053 -0.314,0.137l-1.804,1.807l-0.895,-0.896c-0.086,-0.088 -0.204,-0.137 -0.327,-0.137c-0.25,0 -0.456,0.205 -0.456,0.456c0,0.123 0.05,0.241 0.139,0.327l1.216,1.216c0.177,0.176 0.467,0.176 0.644,0l2.126,-2.129c0.088,-0.085 0.137,-0.203 0.137,-0.325c0,-0.25 -0.206,-0.456 -0.456,-0.456c-0.003,0 -0.007,0 -0.01,0Z" style="fill:#fff;"/></svg>